<?xml version="1.0" encoding="UTF-8" standalone="no"?>
<!-- Created with Inkscape (http://www.inkscape.org/) -->

<svg
   xmlns:dc="http://purl.org/dc/elements/1.1/"
   xmlns:cc="http://creativecommons.org/ns#"
   xmlns:rdf="http://www.w3.org/1999/02/22-rdf-syntax-ns#"
   xmlns:svg="http://www.w3.org/2000/svg"
   xmlns="http://www.w3.org/2000/svg"
   xmlns:sodipodi="http://sodipodi.sourceforge.net/DTD/sodipodi-0.dtd"
   xmlns:inkscape="http://www.inkscape.org/namespaces/inkscape"
   inkscape:version="0.48.4 r9939"
   version="1.1"
   id="svg3789"
   height="64px"
   width="64px"
   sodipodi:docname="task_settings.svg">
  <defs
     id="defs3791" />
  <sodipodi:namedview
     id="base"
     pagecolor="#ffffff"
     bordercolor="#666666"
     borderopacity="1.0"
     inkscape:pageopacity="0.0"
     inkscape:pageshadow="2"
     inkscape:zoom="9.58"
     inkscape:cx="17.818356"
     inkscape:cy="32"
     inkscape:current-layer="svg3789"
     showgrid="true"
     inkscape:document-units="px"
     inkscape:grid-bbox="true"
     showguides="true"
     inkscape:guide-bbox="true"
     inkscape:window-width="1600"
     inkscape:window-height="878"
     inkscape:window-x="-8"
     inkscape:window-y="-8"
     inkscape:window-maximized="1">
    <inkscape:grid
       type="xygrid"
       id="grid3797" />
    <sodipodi:guide
       orientation="0,1"
       position="30,32"
       id="guide3799" />
    <sodipodi:guide
       orientation="1,0"
       position="32,35"
       id="guide3801" />
  </sodipodi:namedview>
  <metadata
     id="metadata3794">
    <rdf:RDF>
      <cc:Work
         rdf:about="">
        <dc:format>image/svg+xml</dc:format>
        <dc:type
           rdf:resource="http://purl.org/dc/dcmitype/StillImage" />
      </cc:Work>
    </rdf:RDF>
  </metadata>
  <g
     id="layer1"
     inkscape:label="Layer 1"
     inkscape:groupmode="layer" />
  <path
     style="fill:#2954b2;stroke:#00006e;stroke-width:2;stroke-linecap:round;stroke-linejoin:round;stroke-miterlimit:4;stroke-opacity:1;stroke-dasharray:none;fill-opacity:1"
     d="M 23.53125 4.875 C 22.711561 5.1310428 21.848583 5.2988819 21.0625 5.625 L 21.09375 12.90625 C 18.79907 14.218936 16.774441 15.917691 15.09375 17.9375 L 8 16.65625 C 7.534331 17.383867 7.1494713 18.16684 6.75 18.9375 L 11.375 24.375 C 10.495989 26.752051 10 29.317423 10 32 C 10 32.031617 9.9998667 32.062164 10 32.09375 L 3.8125 35.65625 C 3.9021849 36.349891 3.892695 37.072899 4.03125 37.75 C 4.0620064 37.900303 4.1231413 38.038068 4.15625 38.1875 L 11.3125 39.4375 C 12.210845 41.936003 13.534939 44.232538 15.21875 46.21875 L 12.75 52.9375 C 13.383387 53.519879 14.034573 54.069891 14.71875 54.59375 L 20.90625 51 C 23.140951 52.30709 25.634093 53.236223 28.28125 53.6875 L 30.71875 60.40625 C 31.153024 60.425868 31.560883 60.53125 32 60.53125 C 32.439117 60.53125 32.846976 60.425868 33.28125 60.40625 L 35.71875 53.6875 C 38.365907 53.236223 40.859049 52.30709 43.09375 51 L 49.28125 54.59375 C 49.965427 54.069891 50.616613 53.519879 51.25 52.9375 L 48.78125 46.21875 C 50.465061 44.232538 51.789155 41.936003 52.6875 39.4375 L 59.84375 38.1875 C 59.876859 38.038068 59.937994 37.900303 59.96875 37.75 C 60.107305 37.072899 60.097815 36.349891 60.1875 35.65625 L 54 32.09375 C 54.000133 32.062164 54 32.031617 54 32 C 54 29.317423 53.504011 26.752051 52.625 24.375 L 57.25 18.9375 C 56.850529 18.16684 56.465669 17.383867 56 16.65625 L 48.90625 17.9375 C 47.225559 15.917691 45.20093 14.218936 42.90625 12.90625 L 42.9375 5.625 C 42.151417 5.2988819 41.288439 5.1310428 40.46875 4.875 L 35.90625 10.34375 C 34.63752 10.11621 33.334205 10 32 10 C 30.665795 10 29.36248 10.11621 28.09375 10.34375 L 23.53125 4.875 z M 32 23 C 36.970563 23 41 27.029437 41 32 C 41 36.970563 36.970563 41 32 41 C 27.029437 41 23 36.970563 23 32 C 23 27.029437 27.029437 23 32 23 z "
     id="path4346" />
</svg>
